<svg xmlns="http://www.w3.org/2000/svg" width="16" height="16" viewBox="0 0 16 16">
  <g id="faq-open" transform="translate(-3.375 -3.375)">
    <path id="Path_454" data-name="Path 454" d="M10.149,15.961a.574.574,0,0,1,0-.808l2.833-2.824a.571.571,0,0,1,.787-.018l2.792,2.783a.57.57,0,1,1-.805.808l-2.4-2.362-2.4,2.424A.571.571,0,0,1,10.149,15.961Z" transform="translate(-1.984 -3.387)" fill="#202c39"/>
    <path id="Path_455" data-name="Path 455" d="M11.375,19.375a8,8,0,1,0-8-8A8,8,0,0,0,11.375,19.375Zm0-1.231A6.766,6.766,0,0,1,6.59,6.59,6.766,6.766,0,1,1,16.16,16.16,6.711,6.711,0,0,1,11.375,18.144Z" fill="#202c39"/>
  </g>
</svg>
