<svg xmlns="http://www.w3.org/2000/svg" width="947.611" height="271.268" viewBox="0 0 947.611 271.268">
  <g id="Group_629" data-name="Group 629" transform="translate(0 -1)">
    <path id="Path_846" data-name="Path 846" d="M2.295,0V-1.147l2.295-.8q3.9-1.262,3.9-6.54V-67.234a10.7,10.7,0,0,0-.516-3.671,4.493,4.493,0,0,0-2.7-2.295L2.295-74.577v-1.147H24.438L45.664-20.193,65.628-75.724h22.6v1.147l-1.836.688a5.344,5.344,0,0,0-2.983,2.237,7.592,7.592,0,0,0-.8,3.729V-7.917a8.828,8.828,0,0,0,.574,3.557,4.925,4.925,0,0,0,2.754,2.18L88.23-1.147V0H59.661V-1.147L62.071-2.18a4.925,4.925,0,0,0,2.754-2.18A8.828,8.828,0,0,0,65.4-7.917V-33.732l.229-32.814L41.648,0H35.912L10.9-65.742l.344,28.569V-8.261a9.451,9.451,0,0,0,.746,4.073A4.529,4.529,0,0,0,14.915-1.95l2.524.8V0ZM113.242,1.721a16.86,16.86,0,0,1-11.187-3.786q-4.532-3.786-4.532-10.9,0-5.392,5.507-9.924t17.325-6.827q1.836-.344,4.13-.746t4.819-.86v-9.064q0-7.8-1.893-10.957A6.4,6.4,0,0,0,121.5-54.5a5.581,5.581,0,0,0-4.36,1.778q-1.606,1.778-2.065,6.138l-.229,1.262q-.229,4.934-2.409,7.228a7.14,7.14,0,0,1-5.392,2.295,6.913,6.913,0,0,1-4.934-1.836,6.452,6.452,0,0,1-1.95-4.934,10.662,10.662,0,0,1,3.27-7.917,20.419,20.419,0,0,1,8.662-4.819,40.834,40.834,0,0,1,11.7-1.606q10.211,0,15.776,4.991t5.565,16.235v25.356q0,5.163,4.819,5.163h2.524l1.033.918A16.947,16.947,0,0,1,148.752,0a14.687,14.687,0,0,1-7.286,1.492q-5.048,0-7.974-2.352a10.994,10.994,0,0,1-3.844-6.253,47.864,47.864,0,0,1-7.056,6.253A15.72,15.72,0,0,1,113.242,1.721Zm7-7a8.88,8.88,0,0,0,4.3-1.09A30.718,30.718,0,0,0,129.3-9.752V-29.028l-2.295.459q-1.147.229-2.639.459a17.576,17.576,0,0,0-8.433,4.647,12.106,12.106,0,0,0-3.155,8.777q0,4.7,2.18,7.056A6.934,6.934,0,0,0,120.241-5.278Zm55.187-57.6a9.416,9.416,0,0,1-6.6-2.467,8.107,8.107,0,0,1-2.7-6.253,8.06,8.06,0,0,1,2.7-6.31,9.546,9.546,0,0,1,6.6-2.409,9.337,9.337,0,0,1,6.54,2.409,8.143,8.143,0,0,1,2.639,6.31,8.189,8.189,0,0,1-2.639,6.253A9.212,9.212,0,0,1,175.427-62.874ZM161.889,0V-1.147l1.606-.459a5.334,5.334,0,0,0,3.155-2.065,6.864,6.864,0,0,0,.861-3.671V-43.255a6.221,6.221,0,0,0-.861-3.614,4.88,4.88,0,0,0-3.155-1.664l-1.606-.344v-1.147l21-6.769,1.147,1.147-.344,16.292V-7.228a6.864,6.864,0,0,0,.861,3.671,5.272,5.272,0,0,0,3.04,2.065l1.147.344V0Zm37.977,0V-1.147l1.377-.459a5.541,5.541,0,0,0,4.13-5.737V-68.725a5.7,5.7,0,0,0-.918-3.5A5.605,5.605,0,0,0,201.242-74l-1.492-.344v-1.147l21-4.934,1.377,1.033-.459,16.063v39.239q0,4.245.057,8.433t.057,8.318a6.817,6.817,0,0,0,.918,3.729,5.439,5.439,0,0,0,3.1,2.123l1.492.344V0Z" transform="translate(407.79 133.577)" fill="#fff"/>
    <path id="Path_847" data-name="Path 847" d="M27.192,2.065A55.635,55.635,0,0,1,14.342.516a40.373,40.373,0,0,1-10.9-4.073l.574-15.6H5.163L8.72-11.7a37.853,37.853,0,0,0,3.442,5.679A12.031,12.031,0,0,0,17.21-2.18,16.987,16.987,0,0,0,21.627-.631a25.73,25.73,0,0,0,4.761.4q7,0,11.072-3.786a12.715,12.715,0,0,0,4.073-9.752q0-5.622-2.754-8.777t-8.834-6.138l-4.7-2.065Q15.374-35.108,9.81-40.788T4.245-55.875a19.7,19.7,0,0,1,3.5-11.7A22.188,22.188,0,0,1,17.5-75.15a37.415,37.415,0,0,1,14.629-2.639,40.586,40.586,0,0,1,11.531,1.606,33.223,33.223,0,0,1,9.466,4.36l-.688,13.768H51.286l-4.7-8.605a17.645,17.645,0,0,0-3.9-5.679,11.446,11.446,0,0,0-4.475-2.352,17.461,17.461,0,0,0-2.754-.631,24.552,24.552,0,0,0-3.213-.172,14.791,14.791,0,0,0-9.867,3.385,11.313,11.313,0,0,0-4.016,9.121q0,5.851,3.1,9.351a27.109,27.109,0,0,0,9.064,6.253L35.8-45.09Q46.811-40.271,51.63-34.822t4.819,14.055A20.453,20.453,0,0,1,48.819-4.3Q41.189,2.065,27.192,2.065ZM81.575-62.874a9.416,9.416,0,0,1-6.6-2.467,8.107,8.107,0,0,1-2.7-6.253,8.06,8.06,0,0,1,2.7-6.31,9.546,9.546,0,0,1,6.6-2.409,9.337,9.337,0,0,1,6.54,2.409,8.143,8.143,0,0,1,2.639,6.31,8.189,8.189,0,0,1-2.639,6.253A9.212,9.212,0,0,1,81.575-62.874ZM68.037,0V-1.147l1.606-.459A5.335,5.335,0,0,0,72.8-3.671a6.864,6.864,0,0,0,.86-3.671V-43.255a6.221,6.221,0,0,0-.86-3.614,4.88,4.88,0,0,0-3.155-1.664l-1.606-.344v-1.147l21-6.769,1.147,1.147-.344,16.292V-7.228A6.864,6.864,0,0,0,90.7-3.557a5.272,5.272,0,0,0,3.04,2.065l1.147.344V0Zm62.644-19.849a30.886,30.886,0,0,1-13.424-2.639v3.9a3.928,3.928,0,0,0,3.557,4.245l21.57,4.016a57.96,57.96,0,0,1,9.752,2.7,17.147,17.147,0,0,1,7,4.7q2.639,3.04,2.639,8.318A16.643,16.643,0,0,1,158.1,15.776a25.411,25.411,0,0,1-10.842,7.687q-7.171,2.926-17.841,2.926-9.179,0-14.571-1.893t-7.63-4.876a10.348,10.348,0,0,1-2.237-6.31,14.865,14.865,0,0,1,2.811-8.318,22.322,22.322,0,0,1,6.941-6.712,11.248,11.248,0,0,1-5.163-3.557,7.774,7.774,0,0,1-1.606-4.7,8.221,8.221,0,0,1,1.2-4.3,32.6,32.6,0,0,1,2.926-4.073l3.786-4.819q-8.376-4.819-8.376-15.145a16.988,16.988,0,0,1,5.909-13.424q5.909-5.163,17.382-5.163a34.583,34.583,0,0,1,10.269,1.377,19.766,19.766,0,0,1,7.286,3.9,31.465,31.465,0,0,0,6.941-1.893,20.8,20.8,0,0,0,5.909-3.614l1.606,1.147v5.851H149.842q4.13,4.589,4.13,11.818a16.909,16.909,0,0,1-5.909,13.252Q142.155-19.849,130.681-19.849Zm-.115-2.295a7.146,7.146,0,0,0,6.712-3.786Q139.4-29.716,139.4-38.55T137.279-51a7.016,7.016,0,0,0-6.482-3.614,7.007,7.007,0,0,0-6.425,3.729q-2.18,3.729-2.18,12.563T124.2-25.815A6.746,6.746,0,0,0,130.567-22.144Zm-17.1,31.781q0,6.769,4.188,10.211t13.252,3.442q9.523,0,14.342-3.1a9.8,9.8,0,0,0,4.819-8.72,6.374,6.374,0,0,0-2.352-5.163q-2.352-1.95-7.974-2.983l-20.767-3.9-1.836-.459a21.56,21.56,0,0,0-2.639,5.22A16.441,16.441,0,0,0,113.471,9.638ZM172.33,0V-1.147l1.606-.459q4.016-1.147,4.016-5.622V-43.14a6.835,6.835,0,0,0-.8-3.729,4.629,4.629,0,0,0-3.1-1.664l-1.721-.459v-1.147l19.619-6.655,1.147,1.147.918,6.884a36.116,36.116,0,0,1,9.064-5.851,23.981,23.981,0,0,1,9.982-2.295q7.572,0,11.645,4.13t4.073,12.621V-7.113a5.3,5.3,0,0,0,4.36,5.622l1.033.344V0H207.094V-1.147l1.492-.459A5.342,5.342,0,0,0,212.6-7.228v-36.6q0-7.343-7.343-7.343-5.048,0-11.014,5.048V-7.113q0,4.475,4.016,5.622l1.033.344V0Zm88.115,1.721a16.86,16.86,0,0,1-11.187-3.786q-4.532-3.786-4.532-10.9,0-5.392,5.507-9.924t17.325-6.827q1.836-.344,4.13-.746t4.819-.86v-9.064q0-7.8-1.893-10.957a6.4,6.4,0,0,0-5.909-3.155,5.581,5.581,0,0,0-4.36,1.778q-1.606,1.778-2.065,6.138l-.229,1.262q-.229,4.934-2.409,7.228a7.14,7.14,0,0,1-5.392,2.295,6.913,6.913,0,0,1-4.934-1.836,6.452,6.452,0,0,1-1.95-4.934,10.662,10.662,0,0,1,3.27-7.917A20.419,20.419,0,0,1,259.3-55.3,40.834,40.834,0,0,1,271-56.908q10.211,0,15.776,4.991t5.565,16.235v25.356q0,5.163,4.819,5.163h2.524l1.033.918A16.947,16.947,0,0,1,295.955,0a14.687,14.687,0,0,1-7.286,1.492q-5.048,0-7.974-2.352a10.994,10.994,0,0,1-3.844-6.253A47.865,47.865,0,0,1,269.8-.861,15.72,15.72,0,0,1,260.445,1.721Zm7-7a8.88,8.88,0,0,0,4.3-1.09,30.717,30.717,0,0,0,4.761-3.385V-29.028l-2.295.459q-1.147.229-2.639.459a17.576,17.576,0,0,0-8.433,4.647,12.106,12.106,0,0,0-3.155,8.777q0,4.7,2.18,7.056A6.934,6.934,0,0,0,267.444-5.278Zm63.218,7q-7.343,0-11.416-3.671t-4.073-11.7V-52.892h-7.917v-1.147l2.754-.459a21.836,21.836,0,0,0,6.138-2.295,24.959,24.959,0,0,0,5.106-4.016l9.408-10.441h1.147l-.344,16.063h12.85v2.295H331.35v41.3q0,4.016,1.778,6.081a5.716,5.716,0,0,0,4.532,2.065,7.561,7.561,0,0,0,4.245-1.2,18.826,18.826,0,0,0,3.671-3.27l1.147,1.147a16.92,16.92,0,0,1-6.31,6.2A19.366,19.366,0,0,1,330.662,1.721Zm54.039,0a30.392,30.392,0,0,1-15.145-3.614,24.709,24.709,0,0,1-9.924-10.269,33.067,33.067,0,0,1-3.5-15.6,30.755,30.755,0,0,1,3.729-15.489,25.919,25.919,0,0,1,10.211-10.1A29.9,29.9,0,0,1,384.7-56.908a29.965,29.965,0,0,1,14.571,3.5,25.629,25.629,0,0,1,10.154,10.039,31,31,0,0,1,3.729,15.6,32.983,32.983,0,0,1-3.5,15.661,24.894,24.894,0,0,1-9.867,10.211A30.069,30.069,0,0,1,384.7,1.721Zm0-2.295a8.93,8.93,0,0,0,6.425-2.295q2.409-2.295,3.5-8.146a95.761,95.761,0,0,0,1.09-16.522,96.65,96.65,0,0,0-1.09-16.636q-1.09-5.851-3.5-8.146a8.93,8.93,0,0,0-6.425-2.295,9.136,9.136,0,0,0-6.482,2.295q-2.467,2.295-3.557,8.146a96.65,96.65,0,0,0-1.09,16.636,95.761,95.761,0,0,0,1.09,16.522q1.09,5.851,3.557,8.146A9.136,9.136,0,0,0,384.7-.574ZM423.94,0V-1.147l1.721-.459a5.335,5.335,0,0,0,3.155-2.065,6.62,6.62,0,0,0,.861-3.557V-43.14a6.467,6.467,0,0,0-.861-3.729,4.88,4.88,0,0,0-3.155-1.664l-1.721-.459v-1.147l19.734-6.655,1.147,1.147,1.033,9.867v.918a24.1,24.1,0,0,1,4.188-5.909,23.485,23.485,0,0,1,5.737-4.417,12.978,12.978,0,0,1,6.253-1.721q4.36,0,6.655,2.409a8.465,8.465,0,0,1,2.295,6.081,7.906,7.906,0,0,1-2.237,6.024,7.484,7.484,0,0,1-5.335,2.123q-4.819,0-8.49-4.819l-.229-.229A3.815,3.815,0,0,0,452.05-47.1a3.049,3.049,0,0,0-2.754,1.434A8.655,8.655,0,0,0,447.4-43.2a29.776,29.776,0,0,0-1.434,3.27V-7.917q0,4.589,4.016,5.737l3.671,1.033V0Zm68.725,27.536a10.872,10.872,0,0,1-7.286-2.295,7.344,7.344,0,0,1-2.7-5.851,6.441,6.441,0,0,1,2.295-5.163,7.765,7.765,0,0,1,5.163-1.95,9.009,9.009,0,0,1,4.819,1.2,11.15,11.15,0,0,1,3.442,3.5l.8.918q2.524,3.442,5.048-.115,1.033-1.721,2.352-4.532t3.04-7.515L487.388-47.5a15.679,15.679,0,0,0-1.721-3.5,6.957,6.957,0,0,0-2.983-2.237l-2.065-.8v-1.147h28.569v1.033l-2.295.918q-2.524.8-2.582,2.582a12.709,12.709,0,0,0,.861,4.417L517.1-15.26l11.359-31.322A9.978,9.978,0,0,0,529.151-51q-.229-1.778-2.868-2.467l-2.409-.574v-1.147h15.948v1.147l-2.524.8a6.629,6.629,0,0,0-3.672,2.295,17.441,17.441,0,0,0-1.95,4.13L513.2,3.557Q508.728,15.6,504.253,21.57A13.854,13.854,0,0,1,492.665,27.536Z" transform="translate(407.79 244.732)" fill="#fff"/>
    <g id="Group_628" data-name="Group 628">
      <rect id="Rectangle_376" data-name="Rectangle 376" width="328.613" height="231.774" rx="31.906" transform="translate(0 34.706)" fill="#e55812"/>
      <g id="Group_621" data-name="Group 621">
        <path id="Path_839" data-name="Path 839" d="M179.327,119.712l128,91.311c20.491,14.617,10.15,46.92-15.02,46.92H36.3c-25.17,0-35.511-32.3-15.021-46.92l128-91.311A25.865,25.865,0,0,1,179.327,119.712Z" fill="#f26527"/>
      </g>
      <g id="Group_625" data-name="Group 625">
        <g id="Group_622" data-name="Group 622">
          <path id="Path_840" data-name="Path 840" d="M179.327,181.615l128-91.311c20.491-14.617,10.15-46.92-15.02-46.92H36.3c-25.17,0-35.511,32.3-15.021,46.92l128,91.311A25.865,25.865,0,0,0,179.327,181.615Z" fill="#e55812"/>
        </g>
        <g id="Group_624" data-name="Group 624">
          <g id="Group_623" data-name="Group 623" opacity="0.07">
            <path id="Path_841" data-name="Path 841" d="M179.327,181.615l128-91.311c20.491-14.617,10.15-46.92-15.02-46.92H36.3c-25.17,0-35.511,32.3-15.021,46.92l128,91.311A25.865,25.865,0,0,0,179.327,181.615Z"/>
          </g>
        </g>
      </g>
      <g id="Group_627" data-name="Group 627">
        <g id="Group_626" data-name="Group 626">
          <path id="Path_842" data-name="Path 842" d="M374.1,11.219a10.005,10.005,0,0,1-.676.922c-5.5,6.83-10.937,13.725-16.416,20.576Q340.234,53.69,323.427,74.653c-2.874,3.6-3.6,3.806-7.6,1.544Q304.212,69.618,292.611,63c-.011.021-.022.032-.032.053Q281.3,56.634,270.008,50.206c-3.7-2.123-3.957-2.7-2.67-6.745Q274.109,22.23,280.955,1S302.808,17.213,374.1,11.219Z" fill="#fff"/>
          <path id="Path_843" data-name="Path 843" d="M282.464,81.674c-9.532-5.423-19.08-10.821-28.591-16.282-3.587-2.06-5.106-5.2-4.46-8.79a8.155,8.155,0,0,1,10.829-6.223,20.609,20.609,0,0,1,2.918,1.506q27.66,15.7,55.312,31.416a22.586,22.586,0,0,1,2.194,1.313,8.159,8.159,0,0,1-7.955,14.121,27.1,27.1,0,0,1-2.9-1.546q-13.668-7.767-27.329-15.544Z" fill="#fff"/>
          <path id="Path_844" data-name="Path 844" d="M194.31,119.207c11.772-1.174,21.434-6.788,30.391-14.036a140.371,140.371,0,0,0,18.05-18.035c2.763-3.223,5.05-6.847,7.537-10.313.709-.98,1.336-2.035,2.081-3.007,1.532-1.99,2.669-2.582,4.517-1.883,26.761,15.545,45.753,26.546,46.931,27.132a8.175,8.175,0,0,1,1.291.89c1.522,1.26,1.571,2.541.6,4.857-.476,1.129-1.082,2.2-1.582,3.3-1.78,3.877-3.8,7.659-5.228,11.655a140.344,140.344,0,0,0-6.733,24.611c-1.863,11.371-1.956,22.545,2.853,33.354,1.3,2.929.252,4.641-2.862,5.308-.356.086-.725.122-1.079.18a160,160,0,0,0-29,7.472c-20.126,7.171-38.367,17.443-53.335,32.927-3.437,3.569-6.565,7.442-10.241,11.637,16.651-28.964,32.991-57.371,49.259-85.652,6.268-.587,9.333-2.772,10.385-7.24a8.99,8.99,0,0,0-4.243-9.7l-.083-.049a8.991,8.991,0,0,0-10.528,1.118c-3.361,3.126-3.742,6.87-1.148,12.607-16.518,28.136-33.107,56.4-50.028,85.205,1.824-5.271,3.641-9.906,5.04-14.659,6.043-20.671,5.935-41.6,2.2-62.643a160.043,160.043,0,0,0-7.866-28.892c-.125-.337-.276-.675-.378-1.027C190.152,121.285,191.12,119.524,194.31,119.207Z" fill="#fff"/>
        </g>
        <path id="Path_845" data-name="Path 845" d="M210.849,234.558a53.159,53.159,0,0,1,21.787-11.973,54.806,54.806,0,0,1,27.478,0c11.81,2.73,12.8,8.323,26.216,11.986a65.66,65.66,0,0,0,17.787,2.27c16.882.02,30.244-6.284,37.844-10.785" fill="none" stroke="#fff" stroke-miterlimit="10" stroke-width="8"/>
      </g>
    </g>
  </g>
</svg>
