<svg xmlns="http://www.w3.org/2000/svg" xmlns:xlink="http://www.w3.org/1999/xlink" width="577.949" height="328.026" viewBox="0 0 577.949 328.026">
  <defs>
    <filter id="Path_795" x="39.11" y="20.028" width="494.137" height="307.999" filterUnits="userSpaceOnUse">
      <feOffset dx="3" dy="3" input="SourceAlpha"/>
      <feGaussianBlur stdDeviation="3" result="blur"/>
      <feFlood flood-opacity="0.51"/>
      <feComposite operator="in" in2="blur"/>
      <feComposite in="SourceGraphic"/>
    </filter>
  </defs>
  <g id="signup-image" transform="translate(-4086.479 -351.548)">
    <g transform="matrix(1, 0, 0, 1, 4086.48, 351.55)" filter="url(#Path_795)">
      <path id="Path_795-2" data-name="Path 795" d="M4222.3,719.915l359.979-1.079,16.223-.045,21.2-.058,2.086-.006h0l6.722-.018,3.816-.011,6.667-.018,2.883-.008,56-.155a299.512,299.512,0,0,0-.352-42.163c-.5-6.683-1.241-13.861-2.328-21.306q-.546-3.723-1.206-7.527c-.763-4.369-1.649-8.8-2.681-13.246-.074-.322-.15-.646-.225-.971-1.158-4.9-2.491-9.822-4.023-14.7-13.126-41.823-42.525-129.766-98.481-108.876-102.928,38.427-75.983-72.369-163.163-79.551-55.954-4.609-96.822,53.2-90.432,115.318C4345.8,650.579,4223.884,574.4,4222.3,719.915Z" transform="translate(-4177.19 -403.89)" fill="#f26527" opacity="0.15"/>
    </g>
    <g id="Group_593" data-name="Group 593" transform="translate(4349.453 502.144)">
      <path id="Path_796" data-name="Path 796" d="M5095.418,925.894l12.243-120.912h24.164A23.7,23.7,0,0,1,5155.1,833.3c-.056.275-.113.552-.173.833-5.989,28.017-23.567,74.59-17.578,91.765Z" transform="translate(-5023.301 -804.982)" fill="#657285"/>
      <path id="Path_797" data-name="Path 797" d="M4878.65,897.309c4.982-24.46,10.9-55.515,15.152-77.5a18.308,18.308,0,0,1,17.977-14.83h59.2a18.31,18.31,0,0,1,18.042,21.44l-14.293,84.289a18.311,18.311,0,0,1-20.046,15.071l-60.1-6.621A18.308,18.308,0,0,1,4878.65,897.309Z" transform="translate(-4878.276 -804.982)" fill="#b8c1c9"/>
    </g>
    <g id="Group_595" data-name="Group 595" transform="translate(4506.638 627.383)">
      <path id="Path_798" data-name="Path 798" d="M5351.582,1196.362c.78,8.918,5.815,11.672,8.03,11.434s15.165-5.181,15.446-3.367-7.514,7.742-12.972,8.019c0,0,10.308,11.367,17.156,8.086s7.434-8.481,11.7-10.431,7.914-1.945,6.151.045-9.491,3.921-11.932,8.241c-.576,1.019-1.139,1.961-1.569,2.79l14.422-.029c4.573-2.272,8.425-5.407,8.712-8.785.023-.258.044-.5.062-.74l.445-5.2s7.406-8.639,3.556-15.807a10.947,10.947,0,0,0-2.934-3.4s-6.9-4.179-12.532-3.838c0,0,4.362,7.314,5.589,11.66.434,1.532.477,2.7-.193,3.041-.735.381-1.687-.723-2.672-2.492-2.467-4.431-5.14-13.049-5.14-13.049s-4.149-.4-8.873-.463c-2.119-.027-4.353.014-6.379.191a17.18,17.18,0,0,0-5.508,1.179s.282.231.756.626c.7.591,1.833,1.548,3.088,2.658,3.724,3.295,8.564,7.94,6.756,8.359-1.464.339-6.062-2.393-10.154-5.1-3.809-2.522-7.178-5.028-7.178-5.028S5350.8,1187.444,5351.582,1196.362Z" transform="translate(-5351.551 -1182.068)" fill="#e55812"/>
      <g id="Group_594" data-name="Group 594" transform="translate(7.213 14.466)">
        <path id="Path_799" data-name="Path 799" d="M5373.268,1225.693s39.705-1.53,48.475,9.826a28.715,28.715,0,0,0,7.906,11.1l.931,2.535s-6.881-7.255-9.342-7.694C5421.237,1241.456,5425.087,1227.389,5373.268,1225.693Z" transform="translate(-5373.268 -1225.624)" fill="#e55812"/>
        <path id="Path_800" data-name="Path 800" d="M5536.849,1286.753c.341.373.851.881,1.581,1.554l.015.015c.253.234.5.487.738.756a14.426,14.426,0,0,1,1.059,1.329l1.856,0a22.3,22.3,0,0,0-3.578-3.585l-.006,0C5538.368,1286.727,5534.948,1284.66,5536.849,1286.753Z" transform="translate(-5482.137 -1265.827)" fill="#e55812"/>
      </g>
    </g>
    <g id="Group_597" data-name="Group 597" transform="translate(4595.138 595.485)">
      <path id="Path_801" data-name="Path 801" d="M5628.551,1127.509s-16.019-8.971-8.542-21.145c0,0,5.98-7.475,12.388-9.4,0,0-3.418,18.155,0,18.582s2.349-20.5,2.349-20.5,16.874-8.117,23.5-7.476c0,0-10.466,17.728-7.048,17.3s15.166-18.369,15.166-18.369,17.3-3.2,20.077,7.048-1.708,15.379-4.271,16.019-19.01.427-18.583,2.563,11.534,5.553,17.728,3.631c0,0-6.834,16.874-15.805,16.019s-11.748-6.408-17.3-6.835-9.612,1.068-6.835,2.563,12.175.49,16.659,4.3,8.117,6.162-.212,7.871-23.282.641-26.272-5.767Z" transform="translate(-5618.021 -1086.026)" fill="#e55812"/>
      <g id="Group_596" data-name="Group 596" transform="translate(2.104 10.726)">
        <path id="Path_802" data-name="Path 802" d="M5691.118,1118.322s-44.853,14.524-49.979,30.757a34.072,34.072,0,0,1-4.271,15.592v3.2s4.7-10.893,7.262-12.388C5644.128,1155.487,5634.09,1141.39,5691.118,1118.322Z" transform="translate(-5632.711 -1118.322)" fill="#b8c1c9"/>
        <path id="Path_803" data-name="Path 803" d="M5624.356,1267.7l2.563-.005a33.421,33.421,0,0,1,1.775-11.04h0q.236-.6.514-1.141s0-.009,0-.012c.532-1.041.892-1.809,1.119-2.365v0c1.312-3.215-1.822.733-1.822.733A30.06,30.06,0,0,0,5624.356,1267.7Z" transform="translate(-5624.356 -1207.518)" fill="#b8c1c9"/>
      </g>
    </g>
    <g id="Group_599" data-name="Group 599" transform="translate(4502.729 569.914)">
      <path id="Path_804" data-name="Path 804" d="M5417.236,1063.715s21.116-11.825,11.263-27.874c0,0-7.884-9.854-16.331-12.388,0,0,4.5,23.932,0,24.5s-3.1-27.029-3.1-27.029-22.243-10.7-30.97-9.854c0,0,13.8,23.369,9.291,22.805s-19.99-24.214-19.99-24.214-22.805-4.223-26.465,9.291,2.252,20.272,5.63,21.116,25.058.563,24.495,3.379-15.2,7.321-23.368,4.786c0,0,9.01,22.243,20.834,21.116s15.486-8.447,22.806-9.01,12.67,1.408,9.009,3.379-16.047.646-21.96,5.673-10.7,8.124.282,10.376,30.688.844,34.631-7.6Z" transform="translate(-5339.781 -1009.032)" fill="#f2b496"/>
      <g id="Group_598" data-name="Group 598" transform="translate(11.572 14.139)">
        <path id="Path_805" data-name="Path 805" d="M5374.624,1051.6s59.126,19.146,65.883,40.543a44.921,44.921,0,0,0,5.631,20.553v4.224s-6.194-14.359-9.573-16.33C5436.565,1100.594,5449.8,1082.012,5374.624,1051.6Z" transform="translate(-5374.624 -1051.604)" fill="#b8c1c9"/>
        <path id="Path_806" data-name="Path 806" d="M5581.861,1229.3s0,.005,0,.007c.3.735.774,1.751,1.476,3.126l.006.008c.245.477.467.98.676,1.5,0,0,0,0,0,0,2.024,5.073,2.425,12.073,2.35,17.589l3.393-.007a39.7,39.7,0,0,0-5.5-21.258h0C5584.174,1230.162,5580.155,1225.122,5581.861,1229.3Z" transform="translate(-5512.751 -1169.18)" fill="#b8c1c9"/>
      </g>
    </g>
    <g id="Group_602" data-name="Group 602" transform="translate(4429.611 351.548)">
      <g id="Group_600" data-name="Group 600" transform="translate(0 55.823)">
        <rect id="Rectangle_345" data-name="Rectangle 345" width="130.935" height="7.594" transform="translate(130.935 7.594) rotate(180)" fill="#657285"/>
      </g>
      <g id="Group_601" data-name="Group 601" transform="translate(9.339)">
        <rect id="Rectangle_346" data-name="Rectangle 346" width="9.437" height="43.282" transform="translate(88.638 55.851) rotate(180)" fill="#202c39"/>
        <rect id="Rectangle_347" data-name="Rectangle 347" width="9.437" height="43.282" transform="translate(41.514 55.851) rotate(180)" fill="#202c39"/>
        <rect id="Rectangle_348" data-name="Rectangle 348" width="9.437" height="43.282" transform="translate(79.201 55.851) rotate(180)" fill="#016eb9"/>
        <rect id="Rectangle_349" data-name="Rectangle 349" width="9.437" height="49.217" transform="translate(50.95 55.851) rotate(180)" fill="#202c39"/>
        <rect id="Rectangle_350" data-name="Rectangle 350" width="9.437" height="52.622" transform="translate(98.054 55.873) rotate(180)" fill="#e55812"/>
        <rect id="Rectangle_351" data-name="Rectangle 351" width="9.437" height="55.851" transform="translate(107.491 55.862) rotate(180)" fill="#4c6580"/>
        <rect id="Rectangle_352" data-name="Rectangle 352" width="9.437" height="43.282" transform="translate(32.076 55.851) rotate(180)" fill="#4c6580"/>
        <rect id="Rectangle_353" data-name="Rectangle 353" width="9.437" height="52.622" transform="translate(69.824 55.851) rotate(180)" fill="#e55812"/>
        <rect id="Rectangle_354" data-name="Rectangle 354" width="9.437" height="55.851" transform="translate(60.387 55.851) rotate(180)" fill="#4c6580"/>
        <path id="Path_807" data-name="Path 807" d="M5147.747,416.56l8.985,2.962,14.655-46.861L5162.4,369.7Z" transform="translate(-5147.747 -363.671)" fill="#e55812"/>
        <rect id="Rectangle_355" data-name="Rectangle 355" width="7.136" height="8.249" transform="translate(40.32 23.334) rotate(180)" fill="#fff"/>
        <rect id="Rectangle_356" data-name="Rectangle 356" width="7.201" height="1.964" transform="translate(59.47 4.971) rotate(180)" fill="#ebdfdc"/>
        <rect id="Rectangle_357" data-name="Rectangle 357" width="7.201" height="1.964" transform="translate(59.47 8.277) rotate(180)" fill="#ebdfdc"/>
        <rect id="Rectangle_358" data-name="Rectangle 358" width="7.889" height="0.982" transform="translate(50.206 12.369) rotate(180)" fill="#fff"/>
        <rect id="Rectangle_359" data-name="Rectangle 359" width="7.987" height="1.08" transform="translate(97.49 5.866) rotate(180)" fill="#fff"/>
        <rect id="Rectangle_360" data-name="Rectangle 360" width="7.944" height="1.702" transform="translate(106.786 54.955) rotate(180)" fill="#fff"/>
        <rect id="Rectangle_361" data-name="Rectangle 361" width="7.944" height="1.702" transform="translate(106.786 52.686) rotate(180)" fill="#fff"/>
        <path id="Path_808" data-name="Path 808" d="M5450.4,486.634h0a3.437,3.437,0,0,0,3.437-3.437h0a3.437,3.437,0,0,0-3.437-3.437h0a3.437,3.437,0,0,0-3.438,3.437h0A3.437,3.437,0,0,0,5450.4,486.634Z" transform="translate(-5347.588 -437.178)" fill="#fff"/>
        <rect id="Rectangle_362" data-name="Rectangle 362" width="7.42" height="1.702" transform="translate(87.713 17.813) rotate(180)" fill="#fff"/>
        <rect id="Rectangle_363" data-name="Rectangle 363" width="7.42" height="1.702" transform="translate(87.63 26.411) rotate(180)" fill="#fff"/>
        <path id="Path_809" data-name="Path 809" d="M5220.216,405.656h5.2a1.288,1.288,0,0,0,1.288-1.287h0a1.288,1.288,0,0,0-1.288-1.288h-5.2a1.288,1.288,0,0,0-1.288,1.288h0A1.288,1.288,0,0,0,5220.216,405.656Z" transform="translate(-5195.287 -385.966)" fill="#fff"/>
      </g>
    </g>
    <g id="Group_604" data-name="Group 604" transform="translate(4138.054 406.702)">
      <g id="Group_603" data-name="Group 603" transform="translate(0 55.851)">
        <rect id="Rectangle_364" data-name="Rectangle 364" width="130.935" height="7.594" transform="translate(130.935 7.594) rotate(180)" fill="#657285"/>
      </g>
      <rect id="Rectangle_365" data-name="Rectangle 365" width="9.437" height="43.282" transform="translate(58.061 12.57)" fill="#202c39"/>
      <rect id="Rectangle_366" data-name="Rectangle 366" width="9.437" height="49.217" transform="translate(48.625 6.634)" fill="#e55812"/>
      <rect id="Rectangle_367" data-name="Rectangle 367" width="9.437" height="43.282" transform="translate(67.498 12.57)" fill="#4c6580"/>
      <rect id="Rectangle_368" data-name="Rectangle 368" width="9.437" height="52.622" transform="translate(29.751 3.23)" fill="#e55812"/>
      <rect id="Rectangle_369" data-name="Rectangle 369" width="9.437" height="55.851" transform="translate(39.188)" fill="#b24915"/>
      <path id="Path_810" data-name="Path 810" d="M4494.042,582.623l-8.986,2.962L4470.4,538.725l8.986-2.962Z" transform="translate(-4394.467 -529.734)" fill="#202c39"/>
      <rect id="Rectangle_370" data-name="Rectangle 370" width="7.136" height="8.249" transform="translate(59.254 15.086)" fill="#fff"/>
      <rect id="Rectangle_371" data-name="Rectangle 371" width="7.201" height="1.964" transform="translate(40.105 3.007)" fill="#ebdfdc"/>
      <rect id="Rectangle_372" data-name="Rectangle 372" width="7.201" height="1.964" transform="translate(40.105 6.313)" fill="#ebdfdc"/>
      <rect id="Rectangle_373" data-name="Rectangle 373" width="7.889" height="0.982" transform="translate(49.369 11.387)" fill="#fff"/>
      <path id="Path_811" data-name="Path 811" d="M4453.486,571.719h-5.2a1.287,1.287,0,0,1-1.288-1.287h0a1.287,1.287,0,0,1,1.288-1.288h5.2a1.287,1.287,0,0,1,1.288,1.288h0A1.287,1.287,0,0,1,4453.486,571.719Z" transform="translate(-4378.84 -552.029)" fill="#fff"/>
    </g>
    <g id="Group_605" data-name="Group 605" transform="translate(4293.855 423.285)">
      <path id="Path_812" data-name="Path 812" d="M4905.517,575.634c.678-1.227,8.463-14.209,29.339-4.529,0,0-10.7-3.9-14.687-.35,0,0,9.644-2,14.348,2.59s3.028,16.06,1.43,19.3-9.968,12.062-13.966,11.149a12.154,12.154,0,0,1-4.3-2.171,54.132,54.132,0,0,1,.267,6.315c-.318,20.951-17.073,33.1-23.087,27.782-3.857-3.414-8.954,3.536-8.954,3.536l-25.5-56.822S4892.882,557.636,4905.517,575.634Z" transform="translate(-4810.744 -567.543)" fill="#131f2d"/>
      <path id="Path_813" data-name="Path 813" d="M4817.258,818.946a58.521,58.521,0,0,0,20.459,8.707c31.537,7.286,43.622-19.367,48.16-37.663a27.094,27.094,0,0,0-10.684-3.282c-2.279-.269-4.676-.448-6.662-.546-3.541-2.713-8.818-13.813-9.985-31.049l-1.483.4-24.854,6.8s1.139,7.9,1.7,15.368c.432,5.844.5,11.428-.607,12.794-1.939.421-3.1.7-3.1.7a.076.076,0,0,1-.013.024A160.011,160.011,0,0,0,4817.258,818.946Z" transform="translate(-4781.926 -692.816)" fill="#ff7955"/>
      <path id="Path_814" data-name="Path 814" d="M4862.271,763.129s1.142,7.894,1.7,15.368c14.082-1.41,20.616-14.816,23.16-22.17Z" transform="translate(-4811.99 -693.628)" fill="#ef6343"/>
      <path id="Path_815" data-name="Path 815" d="M4829.292,677.344s32.506,7.99,37.17-12.329,12-32.973-8.556-38.933-26.383.864-29.59,7.267S4820.957,674.742,4829.292,677.344Z" transform="translate(-4786.695 -605.109)" fill="#ff7955"/>
      <path id="Path_816" data-name="Path 816" d="M4832.655,613.213c6.439-4.962,9.944-2.749,11.661-.424,20.073-5.731,31.422,10.964,31.422,10.964a55.8,55.8,0,0,0,4.292,26.264s-6.785,2.315-19.69-4.342c-3.942-2.033-7-5.864-9.355-10.2a78.066,78.066,0,0,0,9.446,18.993c-14.647-11.311-16.022-35.59-16.127-38.148-2.4,1.334-7.214,4.323-9.281,7.858-2.809,4.8-5.974,15.292-9,14.22C4826.025,638.4,4823,620.654,4832.655,613.213Z" transform="translate(-4787.48 -596.052)" fill="#131f2d"/>
      <path id="Path_817" data-name="Path 817" d="M4746.354,853.137a64.416,64.416,0,0,1,16.733-5.525,13.919,13.919,0,0,0,13.255,8.251c9.483-.174,18.864-10.663,19.778-11.707,10.864-.349,18.851-.005,18.851-.005s22.882,35.808,20.05,44.1a146.064,146.064,0,0,0-4.48,16.118,164.693,164.693,0,0,0-2.284,55.665c.522,3.851,1,6.013,1,6.013l-72.076,1.673s-5.973-21.258-10.4-39.395c-.134-.546-.265-1.088-.4-1.625-3,6.185-11.517,15.485-15.371,16.216-.232.043-1.312.068-2.868.081-5.77.047-16.936.125-16.936.125C4709.065,926.03,4736.98,857.2,4746.354,853.137Z" transform="translate(-4711.021 -752.182)" fill="#202c39"/>
      <path id="Path_818" data-name="Path 818" d="M5021.381,1080.556a164.693,164.693,0,0,1,2.284-55.665c-.022-.284-.034-.434-.034-.434s-19.717,18.838-23.125,38.533C4998.181,1076.438,5012.377,1079.943,5021.381,1080.556Z" transform="translate(-4904.145 -872.706)" fill="#0e1319"/>
      <path id="Path_819" data-name="Path 819" d="M4895.08,943.3c.409-1.3,7.109-8.488,10.652-9.305s15.242,1.873,15.242,1.873h0a304.656,304.656,0,0,0,43.2-9.192c3.415-.992,6.917-2.077,10.475-3.266l-29.528-26.622L4919,844.47s20.4,1.615,26.007,4.957c20.17,12.02,59.286,78.824,58.577,93.355,0,0-9.466.523-26.755.741-13.286.172-31.1.657-52.879.1a18.442,18.442,0,0,1-4.95.1Z" transform="translate(-4833.901 -752.496)" fill="#ff7955"/>
      <path id="Path_820" data-name="Path 820" d="M4980.275,883.637l38.991,39.171c-2.566.971-5.245,2.358-6.991,2.952a30.134,30.134,0,0,0,12.658,16.845c17.29-.218,26.987-.221,26.987-.221.709-14.531-36.892-85.218-57.062-97.238-5.607-3.342-27.754-1.595-27.754-1.595Z" transform="translate(-4882.005 -751.578)" fill="#202c39"/>
      <path id="Path_821" data-name="Path 821" d="M4711.446,1071.539c1.557-.014,19.572-.162,19.8-.206,3.854-.731,12.369-10.031,15.371-16.215a57.576,57.576,0,0,0-1.963-8.447,73.373,73.373,0,0,0-5.078-10.328C4729.227,1034.784,4711.418,1061.708,4711.446,1071.539Z" transform="translate(-4711.256 -880.601)" fill="#0e1319"/>
      <path id="Path_822" data-name="Path 822" d="M4711.679,872.423a612.907,612.907,0,0,1,16.837-82.173l.06,0c.567-2.187,5.041-19.27,6.911-21.141,2-2,12.538-6.187,14.355-6.637a2.292,2.292,0,0,1-.8,2.162,18.043,18.043,0,0,1-1.666,1.195l2.5,1.343a3.08,3.08,0,0,1-2.333.613,17.852,17.852,0,0,1-2.339-.58c-.518.317-1.027.621-1.491.892a9.093,9.093,0,0,0-1.8,2.017c-.095.4-.434,2.146-.646,3.251a5.3,5.3,0,0,0,.936-1.025,3.608,3.608,0,0,1,3.089-1.386s-2.861,3.594-3.131,5.923a9.235,9.235,0,0,1-2.393,5.408h0a13.181,13.181,0,0,0-2.619,3.423,20.414,20.414,0,0,0-1.059,5.284h0c-.429,5.239-1.9,24.55-1.5,38.771.539,19.137,2.353,36.29.2,46.934a19.72,19.72,0,0,1-2.555,6.88c-4.691,7.2-21.179,5.1-21.179,5.1A73.561,73.561,0,0,1,4711.679,872.423Z" transform="translate(-4710.876 -697.728)" fill="#ff7955"/>
      <path id="Path_823" data-name="Path 823" d="M4711.065,1109.781s16.488,2.1,21.179-5.1a19.72,19.72,0,0,0,2.555-6.88,29.029,29.029,0,0,1-23.121-4.268A73.562,73.562,0,0,0,4711.065,1109.781Z" transform="translate(-4710.876 -918.843)" fill="#0e1319"/>
    </g>
    <g id="Group_606" data-name="Group 606" transform="translate(4196.134 549.163)">
      <path id="Path_824" data-name="Path 824" d="M4752.6,1127.74a4.752,4.752,0,0,1,4.752,4.752h-59.616v-4.752Z" transform="translate(-4604.378 -1067.564)" fill="#131f2d"/>
      <path id="Path_825" data-name="Path 825" d="M4512.9,946.557h-92.17l22.108,64.927h92.768Z" transform="translate(-4419.373 -946.555)" fill="#131f2d"/>
      <path id="Path_826" data-name="Path 826" d="M4508.814,946.553l22.707,64.928h-92.769l-22.108-64.928Z" transform="translate(-4416.645 -946.553)" fill="#131f2d"/>
      <path id="Path_827" data-name="Path 827" d="M4569.48,1028.97a5.993,5.993,0,0,1,5.528,4.492,3.458,3.458,0,0,1-3.455,4.492,6,6,0,0,1-5.529-4.492A3.46,3.46,0,0,1,4569.48,1028.97Z" transform="translate(-4516.333 -1001.598)" fill="#e55812"/>
    </g>
    <g id="Group_607" data-name="Group 607" transform="translate(4136.704 614.091)">
      <path id="Path_828" data-name="Path 828" d="M4434.487,1194.132h327.158l-8.441-26.438c-4.914-15.393-17.817-25.645-32.27-25.645H4465.65c-10.636,0-19.986,7.977-22.924,19.559Z" transform="translate(-4369.132 -1142.049)" fill="#41576e"/>
      <path id="Path_829" data-name="Path 829" d="M4237.705,1194.132h315.552l.609-13.325c.97-21.071-13.853-38.758-32.482-38.758H4268.863c-10.635,0-19.986,7.977-22.919,19.559Z" transform="translate(-4237.705 -1142.049)" fill="#4c6580"/>
    </g>
    <path id="Rectangle_374" data-name="Rectangle 374" d="M1.4,0H574.417a1.4,1.4,0,0,1,1.4,1.4v0a1.4,1.4,0,0,1-1.4,1.4H1.4A1.4,1.4,0,0,1,0,1.4v0A1.4,1.4,0,0,1,1.4,0Z" transform="translate(4086.479 664.776)" fill="#131f2d"/>
  </g>
</svg>
